<svg xmlns="http://www.w3.org/2000/svg" width="1000" height="240" viewBox="0 0 1000 240" role="img" aria-labelledby="title desc">
<title id="title">Wilbert Andrew Yonathan</title>
<desc id="desc">Decorative computer vision detection boxes around the name. This is not live inference.</desc>
<defs><pattern id="grid" width="40" height="40" patternUnits="userSpaceOnUse"><path d="M40 0H0V40" fill="none" stroke="#111e32"/></pattern></defs>
<rect width="1000" height="240" rx="16" fill="#0b1323"/>
<rect x="1" y="1" width="998" height="238" rx="16" fill="url(#grid)" stroke="#24344e" stroke-width="2"/>
<rect x="34" y="24" width="183" height="25" rx="6" fill="#112841" stroke="#235578"/>
<g font-family="DejaVu Sans Mono,monospace" font-size="12"><text x="46" y="43" fill="#84d3fb">COMPUTER VISION</text><text x="820" y="43" fill="#91a6bf" font-size="11">PROFILE / WAY</text></g>
<rect x="156.74" y="91" width="202.61" height="57" fill="none" stroke="#213d58"/>
<path d="M156.74,105 V91 H170.74 M156.74,134 V148 H170.74 M359.35,105 V91 H345.35 M359.35,134 V148 H345.35" fill="none" stroke="#50caff" stroke-width="2"><animate attributeName="opacity" values=".5;1;1;.5" keyTimes="0;.23;.85;1" dur="5.76s" repeatCount="indefinite"/></path>
<text x="168.74" y="134" font-family="DejaVu Sans,sans-serif" font-weight="bold" font-size="43" fill="#eef6ff">Wilbert</text>
<rect x="371.35" y="91" width="208.75" height="57" fill="none" stroke="#213d58"/>
<path d="M371.35,105 V91 H385.35 M371.35,134 V148 H385.35 M580.10,105 V91 H566.10 M580.10,134 V148 H566.10" fill="none" stroke="#50caff" stroke-width="2"><animate attributeName="opacity" values=".5;1;1;.5" keyTimes="0;.23;.85;1" dur="5.76s" repeatCount="indefinite"/></path>
<text x="383.35" y="134" font-family="DejaVu Sans,sans-serif" font-weight="bold" font-size="43" fill="#eef6ff">Andrew</text>
<rect x="592.10" y="91" width="251.16" height="57" fill="none" stroke="#213d58"/>
<path d="M592.10,105 V91 H606.10 M592.10,134 V148 H606.10 M843.26,105 V91 H829.26 M843.26,134 V148 H829.26" fill="none" stroke="#50caff" stroke-width="2"><animate attributeName="opacity" values=".5;1;1;.5" keyTimes="0;.23;.85;1" dur="5.76s" repeatCount="indefinite"/></path>
<text x="604.10" y="134" font-family="DejaVu Sans,sans-serif" font-weight="bold" font-size="43" fill="#eef6ff">Yonathan</text>
<line x1="0" y1="75" x2="0" y2="160" stroke="#58c8f3"><animateTransform attributeName="transform" type="translate" values="144.74 0;855.26 0;855.26 0" keyTimes="0;.5;1" dur="5.76s" repeatCount="indefinite"/><animate attributeName="opacity" values="1;1;0;0" keyTimes="0;.5;.51;1" dur="5.76s" repeatCount="indefinite"/></line>
<path d="M34 177H966" stroke="#233149"/><circle cx="39" cy="202" r="3" fill="#5ccefa"/><g font-family="DejaVu Sans Mono,monospace" font-size="11"><text x="52" y="207" fill="#a7b9cf">RESEARCH  /  BUILD  /  EVALUATE</text><text x="771" y="207" fill="#718aa8">DETECTION-INSPIRED</text></g></svg>